<svg width="309" height="45" viewBox="0 0 309 45" fill="none" xmlns="http://www.w3.org/2000/svg">
<path d="M17.2119 24.9863H10.3564V44H7.55859V24.9863H0.717773V22.6719H17.2119V24.9863ZM36.7676 44H33.9404V34.1416H23.1885V44H20.376V22.6719H23.1885V31.8418H33.9404V22.6719H36.7676V44ZM53.8184 34.1416H44.5752V41.7002H55.3125V44H41.7627V22.6719H55.166V24.9863H44.5752V31.8418H53.8184V34.1416ZM81.7969 27.3008V44H76.1719V1.34375H91.9043C96.5723 1.34375 100.225 2.53516 102.861 4.91797C105.518 7.30078 106.846 10.4551 106.846 14.3809C106.846 18.5215 105.547 21.7148 102.949 23.9609C100.371 26.1875 96.6699 27.3008 91.8457 27.3008H81.7969ZM81.7969 22.7012H91.9043C94.9121 22.7012 97.2168 21.998 98.8184 20.5918C100.42 19.166 101.221 17.1152 101.221 14.4395C101.221 11.9004 100.42 9.86914 98.8184 8.3457C97.2168 6.82227 95.0195 6.03125 92.2266 5.97266H81.7969V22.7012ZM119.678 39.4004H139.893V44H114.023V1.34375H119.678V39.4004ZM170.449 32.8672H152.578L148.564 44H142.764L159.053 1.34375H163.975L180.293 44H174.521L170.449 32.8672ZM154.277 28.2383H168.779L161.514 8.28711L154.277 28.2383ZM211.699 5.97266H197.988V44H192.393V5.97266H178.711V1.34375H211.699V5.97266ZM224.062 44H218.438V1.34375H224.062V44ZM267.158 44H261.504L240.029 11.1289V44H234.375V1.34375H240.029L261.562 34.3613V1.34375H267.158V44ZM308.643 38.4043C307.197 40.4746 305.176 42.0273 302.578 43.0625C300 44.0781 296.992 44.5859 293.555 44.5859C290.078 44.5859 286.992 43.7754 284.297 42.1543C281.602 40.5137 279.512 38.1895 278.027 35.1816C276.562 32.1738 275.811 28.6875 275.771 24.7227V21.002C275.771 14.5762 277.266 9.5957 280.254 6.06055C283.262 2.52539 287.48 0.757812 292.91 0.757812C297.363 0.757812 300.947 1.90039 303.662 4.18555C306.377 6.45117 308.037 9.67383 308.643 13.8535H303.018C301.963 8.20898 298.604 5.38672 292.939 5.38672C289.17 5.38672 286.309 6.71484 284.355 9.37109C282.422 12.0078 281.445 15.8359 281.426 20.8555V24.3418C281.426 29.127 282.52 32.9355 284.707 35.7676C286.895 38.5801 289.854 39.9863 293.584 39.9863C295.693 39.9863 297.539 39.752 299.121 39.2832C300.703 38.8145 302.012 38.0234 303.047 36.9102V27.3301H293.174V22.7598H308.643V38.4043Z" fill="black"/>
</svg>
